<svg width="22" height="19" viewBox="0 0 22 19" fill="none" xmlns="http://www.w3.org/2000/svg">
<path d="M21.1956 7.15765C21.1257 6.94804 20.9396 6.79529 20.7156 6.76364L14.4225 5.87345L11.6081 0.322507C11.508 0.124902 11.3012 -0.000183105 11.0748 -0.000183105C10.8484 -0.000183105 10.6417 0.124902 10.5415 0.322507L7.72697 5.87345L1.434 6.76364C1.21003 6.79529 1.02388 6.94805 0.953941 7.15761C0.883962 7.36722 0.942324 7.59728 1.10445 7.75108L5.65797 12.0719L4.58318 18.1731C4.54488 18.3903 4.63663 18.6097 4.81977 18.7393C4.92337 18.8125 5.04608 18.8498 5.16938 18.8498C5.26406 18.8498 5.35906 18.8279 5.44605 18.7833L11.0748 15.9027L16.7033 18.7833C16.9037 18.8858 17.1465 18.8688 17.3296 18.7392C17.5128 18.6097 17.6045 18.3902 17.5663 18.173L16.4911 12.0719L21.0452 7.75104C21.2073 7.59728 21.2657 7.36722 21.1956 7.15765Z" fill="#FFCA56"/>
</svg>
